<svg width="8" height="10" viewBox="0 0 8 10" fill="none" xmlns="http://www.w3.org/2000/svg">
<path d="M0.384763 0.0508099C0.233936 0.127327 0.110812 0.258044 0.0492497 0.414268C0.00615621 0.519479 0 1.03278 0 5.00531C0 9.26158 0.00307811 9.48476 0.058484 9.60591C0.126202 9.76213 0.295498 9.92154 0.446326 9.97255C0.510966 9.99487 0.63409 10.0044 0.723355 9.99806C0.877261 9.98531 1.07734 9.86097 4.31551 7.76631C6.19931 6.54522 7.77838 5.50586 7.82455 5.45484C8.05848 5.19979 8.05848 4.79807 7.82455 4.54301C7.77838 4.492 6.19931 3.45264 4.31243 2.23155L0.883417 0.0125513L0.695652 0.00298691C0.557137 -0.00657749 0.474028 0.00617504 0.384763 0.0508099ZM4.08465 2.6779C5.94075 3.87668 7.4798 4.88734 7.50443 4.92879C7.54752 4.99574 7.54444 5.00849 7.49211 5.08182C7.44286 5.14878 1.09888 9.25521 0.760292 9.43693C0.652559 9.49751 0.640246 9.49751 0.56945 9.44969L0.492497 9.39868L0.492497 4.98936C0.492497 1.60347 0.501731 0.57049 0.529434 0.541796C0.550981 0.519479 0.600231 0.503537 0.640246 0.503537C0.68334 0.503537 2.0808 1.38667 4.08465 2.6779Z" fill="#0D3F31"/>
</svg>
