<svg width="22" height="22" viewBox="0 0 22 22" fill="none" xmlns="http://www.w3.org/2000/svg">
<path d="M11 0C17.0751 0 22 4.92487 22 11C22 17.0751 17.0751 22 11 22C4.92487 22 0 17.0751 0 11C0 4.92487 4.92487 0 11 0ZM14.9531 4.36938C14.7265 4.35602 14.5216 4.49148 14.3663 4.73193L12.8624 7.58397C12.7041 7.92193 12.7941 8.28379 13.0303 8.52526L13.7191 9.2141C13.7616 9.27236 13.7896 9.33797 13.7903 9.41013C13.5261 10.4327 12.7248 11.3759 12.0178 12.0245C11.3108 12.6732 10.551 13.5513 9.56457 13.7594C9.44266 13.7934 9.29329 13.8056 9.20605 13.7245L8.40576 12.9094C8.12951 12.7001 7.72988 12.5986 7.43494 12.7698H7.42152L4.7078 14.3717C4.30945 14.6214 4.26818 15.104 4.55338 15.3976L6.42248 17.252C6.69851 17.535 7.06521 17.6302 7.42148 17.6306C8.99719 17.5834 10.486 16.81 11.7089 16.0153C13.7163 14.555 15.5575 12.7438 16.7135 10.5555C17.1568 9.63796 17.6776 8.46719 17.6279 7.44302C17.6235 7.05773 17.5192 6.68026 17.2479 6.43192L15.3788 4.56278C15.2332 4.43888 15.0891 4.37741 14.9531 4.36938Z" fill="#0D3F31"/>
</svg>
