<svg width="22" height="22" viewBox="0 0 22 22" fill="none" xmlns="http://www.w3.org/2000/svg">
<g clip-path="url(#clip0_407_686)">
<path d="M10.9997 21.5197C16.8099 21.5197 21.52 16.8099 21.52 11C21.52 5.19017 16.8099 0.480347 10.9997 0.480347C5.18956 0.480347 0.479492 5.19017 0.479492 11C0.479492 16.8099 5.18956 21.5197 10.9997 21.5197Z" fill="#0D3F31"/>
<path d="M5.09485 6.34216C4.80659 6.34214 4.57028 6.57775 4.57031 6.86617V15.1333C4.5702 15.4217 4.80623 15.6584 5.09485 15.6584H16.9053C17.194 15.6584 17.43 15.4218 17.4299 15.1333V6.86617C17.4299 6.57776 17.1936 6.34214 16.9053 6.34216H5.09485ZM6.49296 7.59803H15.5039L10.999 11.5341L6.49296 7.59803ZM16.3808 8.22488V14.0398L13.0863 11.1031L16.3808 8.22488ZM5.61943 8.22815L8.92758 11.119L5.61943 14.0683V8.22815ZM12.2904 11.7983L15.4246 14.5928H6.60782L9.72396 11.8147L10.6528 12.6264C10.8497 12.7984 11.1461 12.7984 11.3431 12.6264L12.2904 11.7983Z" fill="white"/>
<g clip-path="url(#clip1_407_686)">
<path d="M10.9874 21.3925C16.7336 21.3925 21.3918 16.7343 21.3918 10.9881C21.3918 5.24194 16.7336 0.58374 10.9874 0.58374C5.24121 0.58374 0.583008 5.24194 0.583008 10.9881C0.583008 16.7343 5.24121 21.3925 10.9874 21.3925Z" fill="#0D3F31"/>
<path d="M5.45508 7.86218L9.04343 11.0899L5.45508 14.1164V7.86218Z" fill="white"/>
<path d="M10.987 11.906L6.05762 7.47144H15.9163L10.987 11.906Z" fill="white"/>
<path d="M9.56374 11.5581L10.7556 12.6302C10.8218 12.6896 10.9048 12.7192 10.9875 12.7192C11.0703 12.7192 11.1535 12.6896 11.2194 12.6302L12.4113 11.5581L15.9026 14.5044H6.07227L9.56374 11.5581Z" fill="white"/>
<path d="M12.9316 11.0899L16.52 7.86218V14.1164L12.9316 11.0899Z" fill="white"/>
</g>
</g>
<defs>
<clipPath id="clip0_407_686">
<rect width="22" height="22" fill="white"/>
</clipPath>
<clipPath id="clip1_407_686">
<rect width="21.0638" height="21.0638" fill="white" transform="translate(0.467773 0.468018)"/>
</clipPath>
</defs>
</svg>
