<svg width="31" height="31" viewBox="0 0 31 31" fill="none" xmlns="http://www.w3.org/2000/svg">
<g clip-path="url(#clip0_64_332)">
<path d="M15.5 0.620117C7.2819 0.620117 0.619995 7.28202 0.619995 15.5001C0.619995 23.7182 7.2819 30.3801 15.5 30.3801C23.7181 30.3801 30.38 23.7182 30.38 15.5001C30.38 7.28202 23.7181 0.620117 15.5 0.620117ZM21.2226 17.4082C21.2226 17.4082 22.5385 18.7071 22.8625 19.31C22.8718 19.3224 22.8764 19.3348 22.8795 19.341C23.0113 19.5627 23.0423 19.7347 22.9772 19.8634C22.8687 20.0773 22.4967 20.1827 22.3696 20.192H20.0446C19.8834 20.192 19.5455 20.1501 19.1363 19.868C18.8216 19.6479 18.5116 19.2868 18.2094 18.9349C17.7583 18.411 17.3677 17.9584 16.974 17.9584C16.924 17.9583 16.8743 17.9662 16.8268 17.9817C16.5292 18.0778 16.1479 18.5025 16.1479 19.634C16.1479 19.9874 15.8689 20.1904 15.672 20.1904H14.6072C14.2445 20.1904 12.355 20.0633 10.681 18.2979C8.63194 16.1356 6.78745 11.7987 6.77194 11.7584C6.65569 11.4779 6.89595 11.3275 7.1579 11.3275H9.50615C9.81925 11.3275 9.92155 11.5182 9.99285 11.6871C10.0765 11.884 10.3834 12.6667 10.8872 13.5471C11.704 14.9824 12.2047 15.5652 12.6061 15.5652C12.6814 15.5643 12.7554 15.5452 12.8216 15.5094C13.3455 15.218 13.2478 13.3503 13.2246 12.9628C13.2246 12.8899 13.223 12.1273 12.9549 11.7615C12.7627 11.4965 12.4356 11.3957 12.2372 11.3585C12.3175 11.2477 12.4233 11.1579 12.5457 11.0966C12.9053 10.9168 13.5532 10.8904 14.1964 10.8904H14.5545C15.252 10.8997 15.4318 10.9447 15.6844 11.0082C16.1959 11.1307 16.2068 11.4608 16.1618 12.5908C16.1479 12.9116 16.1339 13.2743 16.1339 13.7021C16.1339 13.7951 16.1293 13.8943 16.1293 13.9997C16.1138 14.5748 16.0952 15.2273 16.5013 15.4955C16.5543 15.5287 16.6155 15.5464 16.678 15.5466C16.819 15.5466 17.2437 15.5466 18.3938 13.5735C18.7485 12.9384 19.0568 12.2784 19.3161 11.5988C19.3393 11.5585 19.4075 11.4345 19.4881 11.3864C19.5476 11.3561 19.6136 11.3407 19.6803 11.3415H22.4409C22.7416 11.3415 22.9477 11.3864 22.9865 11.5027C23.0547 11.6871 22.9741 12.2498 21.7139 13.9563L21.1513 14.6988C20.0089 16.1961 20.0089 16.272 21.2226 17.4082Z" fill="white"/>
</g>
<defs>
<clipPath id="clip0_64_332">
<rect width="31" height="31" fill="white"/>
</clipPath>
</defs>
</svg>
