<svg width="22" height="23" viewBox="0 0 22 23" fill="none" xmlns="http://www.w3.org/2000/svg">
<path d="M1.64894 6.88504L9.50608 11.2978C9.77008 11.4456 10.1116 11.5157 10.4552 11.5157C10.7988 11.5157 11.1404 11.4456 11.4044 11.2978L19.2615 6.88504C19.7738 6.59699 20.2578 5.47656 19.3181 5.47656H1.59342C0.653704 5.47656 1.1377 6.59699 1.64894 6.88504ZM19.4993 9.29785L11.4044 13.7084C11.0482 13.9033 10.7988 13.9263 10.4552 13.9263C10.1116 13.9263 9.86227 13.9033 9.50608 13.7084C9.14989 13.5134 2.03342 9.61328 1.45199 9.29675C1.04342 9.07332 1.04761 9.33509 1.04761 9.53661V17.5242C1.04761 17.9842 1.64056 18.6194 2.09523 18.6194H18.8571C19.3118 18.6194 19.9047 17.9842 19.9047 17.5242V9.53771C19.9047 9.33618 19.9089 9.07442 19.4993 9.29785Z" fill="white"/>
</svg>
