<svg width="21" height="21" viewBox="0 0 21 21" fill="none" xmlns="http://www.w3.org/2000/svg">
<g clip-path="url(#clip0_64_373)">
<path d="M12.923 21C11.4657 19.7433 10.1148 18.3656 8.88458 16.8813C7.03843 14.6522 4.84613 11.3326 4.84613 8.16917C4.84533 6.55361 5.31864 4.97411 6.20616 3.63058C7.09368 2.28706 8.35551 1.23989 9.83197 0.621604C11.3084 0.00332052 12.9331 -0.158286 14.5005 0.157238C16.0678 0.472762 17.5073 1.25123 18.6369 2.39413C19.3889 3.15098 19.985 4.0511 20.3906 5.04238C20.7962 6.03366 21.0033 7.09643 20.9999 8.16917C20.9999 11.3326 18.8076 14.6522 16.9615 16.8813C15.7313 18.3656 14.3804 19.7433 12.923 21ZM12.923 4.66985C12.005 4.66985 11.1245 5.03853 10.4754 5.69478C9.8262 6.35103 9.4615 7.24109 9.4615 8.16917C9.4615 9.09725 9.8262 9.98731 10.4754 10.6436C11.1245 11.2998 12.005 11.6685 12.923 11.6685C13.8411 11.6685 14.7215 11.2998 15.3707 10.6436C16.0199 9.98731 16.3846 9.09725 16.3846 8.16917C16.3846 7.24109 16.0199 6.35103 15.3707 5.69478C14.7215 5.03853 13.8411 4.66985 12.923 4.66985Z" fill="white"/>
</g>
<defs>
<clipPath id="clip0_64_373">
<rect width="21" height="21" fill="white"/>
</clipPath>
</defs>
</svg>
