<svg width="16" height="16" viewBox="0 0 16 16" fill="none" xmlns="http://www.w3.org/2000/svg">
<path d="M11.4065 7.41659C11.4065 8.54883 11.0389 9.59473 10.4197 10.4433L13.5432 13.5687C13.8516 13.877 13.8516 14.3777 13.5432 14.6861C13.2348 14.9944 12.7339 14.9944 12.4255 14.6861L9.302 11.5607C8.45327 12.1823 7.40717 12.5474 6.27471 12.5474C3.43987 12.5474 1.14288 10.2509 1.14288 7.41659C1.14288 4.5823 3.43987 2.28577 6.27471 2.28577C9.10956 2.28577 11.4065 4.5823 11.4065 7.41659ZM6.27471 10.9687C8.23616 10.9687 9.82752 9.37766 9.82752 7.41659C9.82752 5.45553 8.23616 3.86448 6.27471 3.86448C4.31327 3.86448 2.72191 5.45553 2.72191 7.41659C2.72191 9.37766 4.31327 10.9687 6.27471 10.9687Z" fill="white"/>
</svg>
