<svg width="14" height="14" viewBox="0 0 14 14" fill="none" xmlns="http://www.w3.org/2000/svg">
<g clip-path="url(#clip0_407_532)">
<path fill-rule="evenodd" clip-rule="evenodd" d="M7.00002 1.16663C3.77827 1.16663 1.16669 3.77821 1.16669 6.99996C1.16669 8.10246 1.47294 9.13496 2.00552 10.0146L1.48519 11.7833C1.45531 11.8848 1.45335 11.9926 1.4795 12.0951C1.50565 12.1977 1.55895 12.2913 1.6338 12.3662C1.70865 12.441 1.80228 12.4943 1.90485 12.5205C2.00742 12.5466 2.11514 12.5447 2.21669 12.5148L3.98535 11.9945C4.89458 12.5446 5.93731 12.8347 7.00002 12.8333C10.2218 12.8333 12.8334 10.2217 12.8334 6.99996C12.8334 3.77821 10.2218 1.16663 7.00002 1.16663ZM5.68052 8.32004C6.8606 9.49954 7.98702 9.65529 8.38485 9.66988C8.98977 9.69204 9.57894 9.23004 9.80819 8.69396C9.83713 8.62727 9.84763 8.55403 9.8386 8.4819C9.82957 8.40976 9.80134 8.34137 9.75685 8.28388C9.43719 7.87554 9.00494 7.58213 8.5826 7.29046C8.49443 7.22949 8.38606 7.20503 8.28025 7.22222C8.17443 7.2394 8.07937 7.29689 8.01502 7.38263L7.66502 7.91638C7.64662 7.94507 7.61795 7.96565 7.58487 7.97389C7.55179 7.98213 7.51682 7.97742 7.4871 7.96071C7.24969 7.82479 6.90377 7.59379 6.65527 7.34529C6.40677 7.09679 6.18977 6.76663 6.06785 6.54438C6.05274 6.51614 6.04837 6.48338 6.05555 6.45217C6.06274 6.42096 6.081 6.39341 6.10694 6.37463L6.64594 5.97446C6.72286 5.90758 6.7725 5.81474 6.78541 5.71363C6.79832 5.61252 6.77359 5.51019 6.71594 5.42613C6.4546 5.04346 6.1501 4.55696 5.70852 4.23438C5.65153 4.19308 5.58477 4.16733 5.51481 4.15966C5.44485 4.15199 5.3741 4.16266 5.30952 4.19063C4.77285 4.42046 4.30852 5.00963 4.33069 5.61571C4.34527 6.01354 4.50102 7.13996 5.68052 8.32004Z" fill="#1A483B"/>
</g>
<defs>
<clipPath id="clip0_407_532">
<rect width="14" height="14" fill="white"/>
</clipPath>
</defs>
</svg>
