<svg width="14" height="14" viewBox="0 0 14 14" fill="none" xmlns="http://www.w3.org/2000/svg">
<g clip-path="url(#clip0_407_551)">
<path d="M7.00011 13.6943C10.6975 13.6943 13.6948 10.6972 13.6948 7C13.6948 3.30282 10.6975 0.305664 7.00011 0.305664C3.30274 0.305664 0.30542 3.30282 0.30542 7C0.30542 10.6972 3.30274 13.6943 7.00011 13.6943Z" fill="#1A483B"/>
<path d="M3.24237 4.03589C3.05893 4.03588 2.90855 4.18581 2.90857 4.36935V9.63023C2.9085 9.8138 3.0587 9.9644 3.24237 9.96438H10.7581C10.9418 9.9644 11.092 9.81382 11.0919 9.63023V4.36935C11.0919 4.18581 10.9416 4.03588 10.7581 4.03589H3.24237ZM4.13207 4.83508H9.86634L6.99955 7.33986L4.13207 4.83508ZM10.4243 5.23398V8.93442L8.32782 7.06558L10.4243 5.23398ZM3.57619 5.23606L5.68137 7.07566L3.57619 8.95251V5.23606ZM7.82137 7.50798L9.81586 9.28632H4.20517L6.18817 7.51842L6.77922 8.03497C6.90456 8.1444 7.09314 8.14439 7.21849 8.03497L7.82137 7.50798Z" fill="white"/>
<g clip-path="url(#clip1_407_551)">
<path d="M6.99243 13.6134C10.6491 13.6134 13.6134 10.6491 13.6134 6.99243C13.6134 3.33577 10.6491 0.37146 6.99243 0.37146C3.33577 0.37146 0.37146 3.33577 0.37146 6.99243C0.37146 10.6491 3.33577 13.6134 6.99243 13.6134Z" fill="#1A483B"/>
<path d="M3.4715 5.00317L5.755 7.05715L3.4715 8.98311V5.00317Z" fill="white"/>
<path d="M6.99234 7.57652L3.85547 4.75452H10.1292L6.99234 7.57652Z" fill="white"/>
<path d="M6.08629 7.3551L6.84476 8.03736C6.88684 8.07517 6.93966 8.094 6.99233 8.094C7.04501 8.094 7.09798 8.07517 7.13991 8.03736L7.89838 7.3551L10.1201 9.23001H3.86444L6.08629 7.3551Z" fill="white"/>
<path d="M8.23004 7.05715L10.5135 5.00317V8.98311L8.23004 7.05715Z" fill="white"/>
</g>
</g>
<defs>
<clipPath id="clip0_407_551">
<rect width="14" height="14" fill="white"/>
</clipPath>
<clipPath id="clip1_407_551">
<rect width="13.4043" height="13.4043" fill="white" transform="translate(0.298035 0.297852)"/>
</clipPath>
</defs>
</svg>
