<svg width="9" height="7" viewBox="0 0 9 7" fill="none" xmlns="http://www.w3.org/2000/svg">
<path d="M4.12946 6.53704C4.17075 6.59478 4.22599 6.64198 4.29043 6.67459C4.35488 6.7072 4.42659 6.72424 4.49939 6.72424C4.57219 6.72424 4.6439 6.7072 4.70835 6.67459C4.77279 6.64198 4.82803 6.59478 4.86932 6.53704L8.91964 0.904097C8.96652 0.839126 8.99401 0.763027 8.99913 0.684067C9.00424 0.605108 8.98679 0.526309 8.94866 0.456231C8.91053 0.386153 8.85318 0.327477 8.78284 0.286577C8.71251 0.245678 8.63188 0.224119 8.54971 0.224244H0.449073C0.367096 0.22457 0.286762 0.246406 0.216711 0.287403C0.14666 0.328401 0.089541 0.387009 0.0514976 0.456925C0.0134543 0.52684 -0.00407424 0.605419 0.000796921 0.684209C0.00566809 0.762999 0.0327547 0.83902 0.0791438 0.904097L4.12946 6.53704Z" fill="#0D3F31"/>
</svg>
