<svg width="105" height="127" viewBox="0 0 105 127" fill="none" xmlns="http://www.w3.org/2000/svg">
<path d="M47.1937 0.987053C44.2599 1.30676 39.8343 2.33966 36.8259 3.39716C33.8175 4.45466 30.0383 6.22536 29.367 6.88937C28.6709 7.57797 28.7703 8.90599 29.5659 9.52082C29.9389 9.81593 30.3615 10.0373 30.5356 10.0373C30.7096 10.0373 32.102 9.44704 33.6683 8.70925C50.1773 0.987053 69.1477 3.88902 82.1759 16.1609C96.6709 29.7854 99.9528 51.2551 90.1817 68.3718C81.5046 83.5703 64.3491 92.1041 46.9948 89.8415C37.6712 88.6365 29.6157 84.7754 22.6292 78.1844C15.8913 71.7903 11.5901 63.7975 9.87451 54.4276C9.25294 51.0092 9.25294 43.5821 9.87451 40.1637C11.5652 30.9413 15.767 23.047 22.4551 16.5544C23.8475 15.2018 25.0906 13.8984 25.2149 13.6524C25.7619 12.6687 24.7674 11.2669 23.5491 11.2669C22.9275 11.2669 22.3806 11.5866 21.038 12.7179C17.1345 16.0871 13.3305 21.1041 10.6453 26.3916C5.72241 36.155 4.37981 46.1152 6.56775 56.8131C8.05952 64.191 12.1619 72.3559 17.1096 77.8401L18.4771 79.3649L15.7422 84.0868C14.2504 86.6936 13.0072 89.0054 13.0072 89.2759C13.0072 89.9891 14.1261 90.9482 14.9465 90.9482C15.9162 90.9482 16.2643 90.6039 17.4826 88.4889C18.0793 87.4806 19.1484 85.6115 19.8943 84.3573L21.2369 82.0947L23.027 83.5211C27.2785 86.9641 32.4252 89.7432 37.6712 91.4647C39.4862 92.0549 41.0277 92.5713 41.0775 92.5959C41.2018 92.6697 25.3392 119.943 25.1652 119.968C25.0906 119.968 24.0961 117.066 22.9773 113.5C21.8336 109.959 20.7396 106.86 20.5407 106.614C19.944 105.975 19.0241 106.073 12.2116 107.548C8.78055 108.286 5.92131 108.852 5.84672 108.803C5.797 108.729 7.26391 106.048 9.12863 102.827C12.7337 96.6046 12.8581 96.2603 11.7144 95.3012C11.1177 94.8093 10.0486 94.7601 9.47671 95.2028C9.05404 95.5225 0.724962 109.688 0.202841 110.991C0.0288008 111.385 -0.0457879 111.901 0.0288008 112.098C0.227704 112.713 1.12277 113.574 1.5703 113.574C1.79407 113.574 5.54837 112.787 9.89938 111.852C14.2504 110.893 17.8555 110.18 17.9301 110.229C17.9798 110.303 19.1484 113.82 20.491 118.05C22.2314 123.485 23.1264 125.87 23.4745 126.165C24.2453 126.805 25.1403 126.706 25.8862 125.919C26.2592 125.551 30.7096 118.074 35.7568 109.319L44.9561 93.4075L46.6965 93.6043C48.9839 93.8256 56.1693 93.8256 58.382 93.5797L60.1225 93.3829L65.7166 103.048C68.7996 108.36 71.5097 112.885 71.7583 113.131C72.4296 113.82 73.7722 113.721 74.3938 112.934C74.6921 112.565 74.9159 112.098 74.9159 111.877C74.9159 111.656 72.4545 107.229 69.446 102.04C66.4376 96.8505 64.0011 92.5713 64.0259 92.5468C64.0757 92.5222 64.8215 92.3008 65.7166 92.0549C71.3854 90.4318 77.8 87.0625 82.3996 83.2998C83.245 82.5866 83.9908 82.0947 84.0406 82.2423C84.0903 82.3653 87.5711 88.3905 91.7978 95.6209C96.0245 102.851 99.4556 108.803 99.4307 108.827C99.4307 108.827 96.3974 108.212 92.7177 107.401C89.038 106.614 85.8307 105.95 85.6069 105.95C84.513 105.95 84.3638 106.319 81.0819 116.574L80.0128 119.968L79.1426 118.787C78.1729 117.509 77.2779 117.214 76.3082 117.853C75.1645 118.591 75.264 119.304 76.9298 122.28C79.1674 126.239 79.2669 126.362 80.3111 126.362C81.9521 126.362 81.6786 126.977 85.955 113.549L87.0987 109.983L94.7565 111.656C98.9583 112.565 102.762 113.352 103.235 113.377C104.254 113.426 105 112.664 105 111.582C105 111.114 102.091 105.901 95.9996 95.4487C91.0768 86.9641 86.9744 79.8076 86.8998 79.5617C86.8252 79.3157 87.1484 78.7501 87.7451 78.0861C90.3558 75.2825 92.8172 71.6181 94.8311 67.4619C102.787 51.2059 100.45 31.8267 88.8391 17.7841C86.7506 15.251 82.3002 11.144 79.615 9.2503C76.8552 7.28285 72.0318 4.79897 68.6504 3.54472C62.1612 1.1592 54.1305 0.200073 47.1937 0.987053Z" fill="white"/>
<path d="M47.0695 13.8492C32.6739 16.2593 21.2867 27.4245 18.875 41.5655C18.328 44.6642 18.328 49.9271 18.875 53.0258C20.9883 65.3715 29.8146 75.5038 41.9229 79.5124C45.3291 80.6437 48.4867 81.111 52.6637 81.111C60.9679 81.111 68.2278 78.5041 74.5927 73.192C78.4714 69.9704 83.1207 63.7975 83.1207 61.8547C83.1207 61.0431 82.1262 60.207 81.1814 60.207C80.3112 60.207 80.4852 60.0102 77.626 64.3386C74.1203 69.6507 68.2776 73.979 61.8381 76.0694C56.1942 77.8893 48.9094 77.8893 43.2406 76.0694C38.7404 74.6184 34.6629 72.1346 31.207 68.7653C24.6929 62.3957 21.6347 54.2554 22.2315 44.9101C22.9276 34.6056 29.4666 25.0144 39.0636 20.2679C46.0998 16.7757 54.6278 16.1855 62.0867 18.6694C72.6534 22.1616 80.4355 31.0643 82.4991 42.0081C82.9467 44.3937 83.0213 49.7057 82.6235 51.9683C82.2754 54.0341 82.3002 54.3784 82.8721 54.9932C83.5931 55.7556 84.9109 55.731 85.5573 54.9195C86.2286 54.0833 86.6264 51.1813 86.6264 47.2219C86.6264 43.6559 86.3778 41.713 85.4827 38.4422C82.0765 25.703 71.1617 15.9642 57.8849 13.8492C55.1997 13.4065 49.6552 13.4065 47.0695 13.8492Z" fill="white"/>
<path d="M51.5945 25.703C51.4205 25.7768 49.9536 28.4328 48.3375 31.6545L45.3788 37.4585L39.2128 38.3192C33.4198 39.1308 32.9722 39.2292 32.3507 39.844C31.1075 41.0244 31.2567 41.2458 36.3536 46.2627L41.0775 50.8862L39.9587 57.2066C38.8399 63.4532 38.8399 63.5024 39.3123 64.1173C40.2322 65.3469 40.8786 65.1748 46.8209 62.076C49.8293 60.5021 52.3902 59.2233 52.5642 59.2233C52.7134 59.2233 55.2743 60.5021 58.2578 62.076C64.1752 65.1748 64.8465 65.3469 65.7664 64.1173C66.2388 63.5024 66.2388 63.4532 65.12 57.2066L64.0011 50.9108L68.7251 46.2627C71.9573 43.0657 73.4242 41.4671 73.4242 41.0982C73.4242 40.8031 73.1756 40.2621 72.8523 39.8932C72.3053 39.2783 71.9821 39.2046 65.9902 38.3438L59.675 37.4585L56.8406 31.8021C55.2743 28.6788 53.8073 25.9981 53.5836 25.826C53.1858 25.5309 52.1913 25.4571 51.5945 25.703ZM54.777 36.0321C55.9456 38.4176 57.1141 40.4834 57.3876 40.6555C57.7854 40.9015 66.2139 42.2541 67.3328 42.2541C67.4819 42.2541 65.9404 43.828 63.9017 45.7709C60.5452 48.9926 60.2468 49.3369 60.2468 50.1238C60.2468 50.6157 60.5949 52.9274 60.9927 55.2638C61.4154 57.6001 61.7137 59.5676 61.6889 59.5921C61.6392 59.6413 59.7247 58.6576 57.3876 57.428C55.0754 56.1983 52.8874 55.2146 52.5393 55.2146C52.1913 55.2146 50.0282 56.2229 47.6911 57.4526C45.3788 58.6822 43.4395 59.6413 43.3898 59.5921C43.3649 59.5676 43.6633 57.6001 44.0859 55.2638C44.4838 52.9274 44.8318 50.6157 44.8318 50.1238C44.8318 49.3369 44.5583 48.9926 41.177 45.7709C39.1382 43.828 37.6216 42.2541 37.7459 42.2541C38.8896 42.2541 47.2933 40.9015 47.6911 40.6555C47.9646 40.4834 49.158 38.393 50.3017 36.0321C51.4702 33.6465 52.4647 31.7037 52.5393 31.7037C52.6139 31.7037 53.6084 33.6465 54.777 36.0321Z" fill="white"/>
</svg>
