<svg width="94" height="94" viewBox="0 0 94 94" fill="none" xmlns="http://www.w3.org/2000/svg">
<path d="M47.0009 91.9477C71.8261 91.9477 91.951 71.8239 91.951 47C91.951 22.176 71.8261 2.05225 47.0009 2.05225C22.1756 2.05225 2.05078 22.176 2.05078 47C2.05078 71.8239 22.1756 91.9477 47.0009 91.9477Z" fill="#1A483B"/>
<path d="M21.7705 27.098C20.5389 27.0979 19.5292 28.1046 19.5293 29.337V64.66C19.5288 65.8926 20.5373 66.9037 21.7705 66.9036H72.2334C73.4667 66.9037 74.4753 65.8927 74.4747 64.66V29.337C74.4747 28.1047 73.4651 27.0979 72.2334 27.098H21.7705ZM27.7442 32.464H66.2457L46.9973 49.2818L27.7442 32.464ZM69.9921 35.1423V59.9881L55.9157 47.4402L69.9921 35.1423ZM24.0119 35.1563L38.1467 47.5079L24.0119 60.1096V35.1563ZM52.5152 50.4106L65.9069 62.3509H28.235L41.5494 50.4807L45.5179 53.949C46.3595 54.6837 47.6257 54.6837 48.4674 53.949L52.5152 50.4106Z" fill="white"/>
<g clip-path="url(#clip0_96_1383)">
<path d="M46.9492 91.4047C71.5011 91.4047 91.4043 71.5014 91.4043 46.9496C91.4043 22.3977 71.5011 2.49451 46.9492 2.49451C22.3974 2.49451 2.49414 22.3977 2.49414 46.9496C2.49414 71.5014 22.3974 91.4047 46.9492 91.4047Z" fill="#1A483B"/>
<path d="M23.3086 33.5933L38.6407 47.3842L23.3086 60.3157V33.5933Z" fill="white"/>
<path d="M46.9485 50.8716L25.8867 31.9238H68.0104L46.9485 50.8716Z" fill="white"/>
<path d="M40.8654 49.3848L45.958 53.9656C46.2405 54.2195 46.5952 54.346 46.9488 54.346C47.3025 54.346 47.6581 54.2195 47.9397 53.9656L53.0323 49.3848L67.9494 61.9735H25.9473L40.8654 49.3848Z" fill="white"/>
<path d="M55.2578 47.3842L70.5899 33.5933V60.3157L55.2578 47.3842Z" fill="white"/>
</g>
<defs>
<clipPath id="clip0_96_1383">
<rect width="90" height="90" fill="white" transform="translate(2 2)"/>
</clipPath>
</defs>
</svg>
