<svg width="94" height="94" viewBox="0 0 94 94" fill="none" xmlns="http://www.w3.org/2000/svg">
<path d="M47.0001 3.76001C23.1579 3.76001 3.76011 23.1579 3.76011 47C3.76011 54.4448 5.68315 61.7638 9.33035 68.2234L3.82988 87.8533C3.6494 88.4981 3.82262 89.1878 4.28886 89.6672C4.64794 90.0376 5.13815 90.24 5.64011 90.24C5.79051 90.24 5.94323 90.2207 6.09175 90.1849L26.5771 85.1104C32.8319 88.4681 39.8749 90.24 47.0001 90.24C70.8423 90.24 90.2401 70.8422 90.2401 47C90.2401 23.1579 70.8423 3.76001 47.0001 3.76001ZM31.2882 26.32C32.0289 26.32 32.7656 26.3303 33.4142 26.3604C34.0966 26.3942 35.0142 26.101 35.9147 28.2404C36.8397 30.4362 39.0588 35.8301 39.3332 36.381C39.6115 36.9299 39.7972 37.57 39.4287 38.3013C39.0602 39.0327 38.8763 39.4925 38.3198 40.1336C37.7633 40.7747 37.1528 41.5614 36.6528 42.054C36.0963 42.6011 35.5177 43.1922 36.1644 44.2902C36.8111 45.3881 39.0392 48.9771 42.3405 51.8836C46.5799 55.6173 50.1576 56.7764 51.2668 57.3253C52.376 57.8743 53.0252 57.7813 53.6719 57.0499C54.3186 56.3167 56.4471 53.8499 57.1859 52.7538C57.9247 51.6578 58.6638 51.8365 59.6828 52.2031C60.7017 52.5678 66.1597 55.2195 67.2689 55.7685C68.3781 56.3174 69.1203 56.5931 69.3985 57.0499C69.6768 57.5049 69.6773 59.698 68.7523 62.2567C67.8273 64.8172 63.3899 67.1568 61.258 67.4707C59.3442 67.7508 56.9214 67.8685 54.2631 67.0338C52.6519 66.5262 50.5854 65.854 47.9364 64.7242C36.8012 59.9753 29.5277 48.9027 28.9712 48.1713C28.4166 47.44 24.4401 42.23 24.4401 36.8363C24.4401 31.4425 27.306 28.7912 28.325 27.6933C29.3439 26.5954 30.5474 26.32 31.2882 26.32Z" fill="#1A483B"/>
</svg>
