<svg width="31" height="31" viewBox="0 0 31 31" fill="none" xmlns="http://www.w3.org/2000/svg">
<path fill-rule="evenodd" clip-rule="evenodd" d="M7.63123 15.9388C7.63123 15.6893 7.73034 15.45 7.90677 15.2735C8.0832 15.0971 8.32249 14.9979 8.572 14.9979H19.4718L15.4321 10.9597C15.2555 10.7831 15.1562 10.5435 15.1562 10.2936C15.1562 10.0438 15.2555 9.80415 15.4321 9.62748C15.6088 9.45081 15.8484 9.35156 16.0982 9.35156C16.348 9.35156 16.5876 9.45081 16.7643 9.62748L22.4089 15.2727C22.4965 15.3601 22.5661 15.4639 22.6135 15.5782C22.6609 15.6925 22.6853 15.8151 22.6853 15.9388C22.6853 16.0626 22.6609 16.1851 22.6135 16.2994C22.5661 16.4137 22.4965 16.5175 22.4089 16.6049L16.7643 22.2501C16.5876 22.4268 16.348 22.5261 16.0982 22.5261C15.8484 22.5261 15.6088 22.4268 15.4321 22.2501C15.2555 22.0735 15.1562 21.8338 15.1562 21.584C15.1562 21.3342 15.2555 21.0945 15.4321 20.9179L19.4718 16.8797H8.572C8.32249 16.8797 8.0832 16.7805 7.90677 16.6041C7.73034 16.4277 7.63123 16.1883 7.63123 15.9388Z" fill="white"/>
</svg>
